<?xml version="1.0" encoding="utf-8"?>
<!-- Generator: Adobe Illustrator 21.1.0, SVG Export Plug-In . SVG Version: 6.00 Build 0)  -->
<svg version="1.1" id="Layer_1" xmlns="http://www.w3.org/2000/svg" xmlns:xlink="http://www.w3.org/1999/xlink" x="0px" y="0px"
	 viewBox="0 0 111.7 41.5" style="enable-background:new 0 0 111.7 41.5;" xml:space="preserve">
<style type="text/css">
	.st0{clip-path:url(#SVGID_2_);fill:#FFFFFF;}
	.st1{clip-path:url(#SVGID_4_);fill:#FFFFFF;}
	.st2{clip-path:url(#SVGID_6_);fill:#FFFFFF;}
	.st3{clip-path:url(#SVGID_8_);fill:#FFFFFF;}
	.st4{clip-path:url(#SVGID_10_);fill:#FFFFFF;}
	.st5{clip-path:url(#SVGID_12_);fill:#FFFFFF;}
	.st6{fill:#FFFFFF;}
</style>
<g>
	<defs>
		<path id="SVGID_1_" d="M21.9,10.5c1.3,1.7,2.4,1.9,3,2c1,0.2,16.2,3.3,17.1,3.5c-0.2-0.9-0.3-2.1-0.3-2.6
			C40.9,13.4,25.5,11.1,21.9,10.5z"/>
	</defs>
	<use xlink:href="#SVGID_1_"  style="overflow:visible;fill:#FFFFFF;"/>
	<clipPath id="SVGID_2_">
		<use xlink:href="#SVGID_1_"  style="overflow:visible;"/>
	</clipPath>
	<rect x="21.9" y="10.5" class="st0" width="20.1" height="5.6"/>
</g>
<g>
	<defs>
		<path id="SVGID_3_" d="M16.6,7.1c1.3,1.6,2.4,1.9,2.9,2c1.6,0.2,17.2,2.3,22.1,2.9c0-0.8,0.3-2.1,0.5-3C41.5,9,19.1,7.3,16.6,7.1z
			"/>
	</defs>
	<use xlink:href="#SVGID_3_"  style="overflow:visible;fill:#FFFFFF;"/>
	<clipPath id="SVGID_4_">
		<use xlink:href="#SVGID_3_"  style="overflow:visible;"/>
	</clipPath>
	<rect x="16.6" y="7.1" class="st1" width="25.5" height="4.9"/>
</g>
<g>
	<defs>
		<path id="SVGID_5_" d="M11.3,3.8c0.9,1,2.4,2,2.9,2C18,6.1,30.6,6.9,42.6,7.7c0.8-2.1,2.3-3.9,2.9-4.4C39.3,3.3,21.5,3.6,11.3,3.8
			"/>
	</defs>
	<use xlink:href="#SVGID_5_"  style="overflow:visible;fill:#FFFFFF;"/>
	<clipPath id="SVGID_6_">
		<use xlink:href="#SVGID_5_"  style="overflow:visible;"/>
	</clipPath>
	<rect x="11.3" y="3.2" class="st2" width="34.2" height="4.4"/>
</g>
<g>
	<defs>
		<path id="SVGID_7_" d="M70.1,13.5c0,0.5-0.1,1.7-0.3,2.6c0.9-0.2,16.1-3.3,17.1-3.5c0.6-0.1,1.7-0.4,3-2
			C86.2,11.1,70.8,13.4,70.1,13.5"/>
	</defs>
	<use xlink:href="#SVGID_7_"  style="overflow:visible;fill:#FFFFFF;"/>
	<clipPath id="SVGID_8_">
		<use xlink:href="#SVGID_7_"  style="overflow:visible;"/>
	</clipPath>
	<rect x="69.8" y="10.5" class="st3" width="20.1" height="5.6"/>
</g>
<g>
	<defs>
		<path id="SVGID_9_" d="M69.5,9.1c0.3,0.8,0.5,2.2,0.5,3c4.9-0.6,20.5-2.7,22.1-2.9c0.5-0.1,1.6-0.4,2.9-2
			C92.6,7.3,70.2,9,69.5,9.1"/>
	</defs>
	<use xlink:href="#SVGID_9_"  style="overflow:visible;fill:#FFFFFF;"/>
	<clipPath id="SVGID_10_">
		<use xlink:href="#SVGID_9_"  style="overflow:visible;"/>
	</clipPath>
	<rect x="69.5" y="7.1" class="st4" width="25.5" height="4.9"/>
</g>
<g>
	<defs>
		<path id="SVGID_11_" d="M66.2,3.2c0.6,0.6,2,2.3,2.9,4.4c12.1-0.8,24.6-1.6,28.5-1.9c0.5,0,2-1,2.9-2C90.2,3.6,72.4,3.3,66.2,3.2z
			"/>
	</defs>
	<use xlink:href="#SVGID_11_"  style="overflow:visible;fill:#FFFFFF;"/>
	<clipPath id="SVGID_12_">
		<use xlink:href="#SVGID_11_"  style="overflow:visible;"/>
	</clipPath>
	<rect x="66.2" y="3.2" class="st5" width="34.2" height="4.4"/>
</g>
<g>
	<path class="st6" d="M55.8,0c-7.2,0-13,5.8-13,13c0,7.2,5.8,13,13,13c7.2,0,13-5.8,13-13C68.8,5.8,63,0,55.8,0 M55.8,24.5
		c-6.3,0-11.5-5.2-11.5-11.5c0-6.3,5.2-11.5,11.5-11.5c6.3,0,11.5,5.2,11.5,11.5C67.3,19.3,62.2,24.5,55.8,24.5"/>
	<path class="st6" d="M6.8,39.9H3l-0.5,1.4H0l3.4-9.2h3l3.5,9.2H7.3L6.8,39.9z M3.6,37.9h2.6l-1.3-3.7L3.6,37.9z"/>
	<path class="st6" d="M12.8,32.2h2.4v5.4c0,1.1,0.6,1.9,1.9,1.9c1.3,0,1.8-0.8,1.8-1.9v-5.4h2.4v5.4c0,2.3-1.3,3.9-4.2,3.9
		s-4.3-1.6-4.3-3.9V32.2z"/>
	<polygon class="st6" points="27.7,34.2 25.1,34.2 25.1,32.2 32.6,32.2 32.6,34.2 30.1,34.2 30.1,41.3 27.7,41.3 	"/>
	<path class="st6" d="M40.6,32c2.8,0,4.9,1.9,4.9,4.7s-2.1,4.7-4.9,4.7c-2.8,0-4.9-1.9-4.9-4.7S37.8,32,40.6,32 M40.6,34.1
		c-1.5,0-2.5,1.2-2.5,2.6c0,1.5,1,2.6,2.5,2.6c1.5,0,2.5-1.2,2.5-2.6C43.1,35.2,42.1,34.1,40.6,34.1"/>
	<path class="st6" d="M50,38.3c0.7,0.7,1.7,1.2,2.9,1.2c0.8,0,1.3-0.3,1.3-0.8c0-0.5-0.6-0.7-1.6-0.9c-1.5-0.3-3.6-0.7-3.6-2.9
		c0-1.5,1.3-2.9,3.7-2.9c1.5,0,2.7,0.4,3.7,1.3L55.1,35c-0.8-0.6-1.8-0.9-2.6-0.9c-0.8,0-1.1,0.3-1.1,0.7c0,0.5,0.6,0.6,1.6,0.8
		c1.5,0.3,3.6,0.8,3.6,2.8c0,1.8-1.4,3.1-3.8,3.1c-1.9,0-3.1-0.6-4.1-1.5L50,38.3z"/>
	<path class="st6" d="M60,36.7c0-2.8,2.1-4.7,4.9-4.7c2.3,0,3.5,1.2,4.1,2.5l-2,1c-0.3-0.7-1.1-1.3-2-1.3c-1.4,0-2.5,1.2-2.5,2.6
		c0,1.5,1.1,2.6,2.5,2.6c0.9,0,1.7-0.6,2-1.3l2,1c-0.6,1.2-1.8,2.5-4.1,2.5C62.2,41.5,60,39.6,60,36.7"/>
	<polygon class="st6" points="72.7,32.2 79.5,32.2 79.5,34.1 75.1,34.1 75.1,35.7 79.4,35.7 79.4,37.7 75.1,37.7 75.1,39.3 
		79.5,39.3 79.5,41.3 72.7,41.3 	"/>
	<polygon class="st6" points="85.9,35.8 85.9,41.3 83.6,41.3 83.6,32.2 86,32.2 89.7,37.4 89.7,32.2 92.1,32.2 92.1,41.3 89.8,41.3 
			"/>
	<rect x="96.5" y="32.2" class="st6" width="2.4" height="9.2"/>
	<path class="st6" d="M102.8,36.7c0-2.8,2.1-4.7,4.9-4.7c2.3,0,3.5,1.2,4.1,2.5l-2,1c-0.3-0.7-1.1-1.3-2-1.3c-1.4,0-2.5,1.2-2.5,2.6
		c0,1.5,1.1,2.6,2.5,2.6c0.9,0,1.7-0.6,2-1.3l2,1c-0.6,1.2-1.8,2.5-4.1,2.5C104.9,41.5,102.8,39.6,102.8,36.7"/>
	<polygon class="st6" points="54.5,13.6 57.2,13.6 55.8,9.6 	"/>
	<path class="st6" d="M55.8,2.6c-5.7,0-10.4,4.7-10.4,10.4c0,5.7,4.7,10.4,10.4,10.4c5.7,0,10.4-4.7,10.4-10.4
		C66.3,7.3,61.6,2.6,55.8,2.6 M58.4,17.2l-0.5-1.5h-4.1l-0.5,1.5h-2.8l3.7-9.9h3.2l3.7,9.9H58.4z"/>
</g>
</svg>
